<?xml version="1.0" standalone="no"?>
<!DOCTYPE svg PUBLIC "-//W3C//DTD SVG 20010904//EN"
 "http://www.w3.org/TR/2001/REC-SVG-20010904/DTD/svg10.dtd">
<svg version="1.0" xmlns="http://www.w3.org/2000/svg"
 width="1004.000000pt" height="213.000000pt" viewBox="0 0 1004.000000 213.000000"
 preserveAspectRatio="xMidYMid meet">

<g transform="translate(0.000000,213.000000) scale(0.100000,-0.100000)"
fill="#000000" stroke="none">
<path d="M1150 1835 c-91 -32 -213 -71 -535 -170 -82 -26 -159 -51 -170 -55
-11 -5 -47 -17 -80 -26 -104 -30 -100 -19 -126 -329 -27 -324 -35 -540 -20
-569 5 -12 18 -49 27 -83 9 -35 22 -63 28 -63 7 0 25 46 41 103 24 87 28 118
26 212 -3 176 -10 402 -17 508 l-6 97 123 -76 c68 -43 216 -133 328 -201 112
-68 268 -165 347 -214 79 -49 150 -89 159 -89 8 0 50 22 93 48 67 43 273 169
412 252 87 53 505 307 528 321 24 15 30 49 8 49 -14 0 -357 107 -822 256 -111
35 -212 64 -225 63 -13 -1 -67 -16 -119 -34z m141 -275 c53 -29 -6 -83 -67
-61 -20 7 -175 11 -455 11 -381 1 -421 2 -390 15 27 12 103 15 420 15 316 1
391 3 411 15 30 17 55 19 81 5z"/>
<path d="M4742 1730 c-108 -28 -187 -75 -272 -160 -87 -86 -131 -162 -160
-276 -24 -94 -26 -244 -5 -329 57 -223 236 -398 460 -451 105 -24 276 -16 374
19 177 63 309 199 366 379 40 128 52 118 -144 118 l-168 0 -17 -43 c-41 -108
-134 -171 -251 -171 -163 -1 -273 110 -283 284 -8 138 45 248 147 303 137 75
307 24 377 -114 l24 -49 171 0 171 0 -7 33 c-50 230 -216 405 -440 462 -84 21
-251 19 -343 -5z"/>
<path d="M8040 1732 c-177 -46 -280 -173 -280 -346 0 -103 21 -164 78 -227 59
-66 141 -105 314 -149 70 -18 141 -41 158 -51 79 -49 52 -142 -48 -164 -76
-16 -156 27 -168 91 l-6 34 -170 0 -171 0 5 -64 c14 -163 133 -294 313 -341
75 -19 240 -19 323 0 223 53 349 232 312 444 -28 163 -126 243 -380 311 -181
48 -220 69 -220 120 0 104 202 103 225 0 l7 -30 164 0 164 0 0 43 c0 117 -79
240 -190 297 -98 50 -302 65 -430 32z"/>
<path d="M9118 1734 c-120 -29 -206 -92 -255 -187 -38 -74 -45 -216 -14 -299
45 -117 146 -182 369 -238 71 -17 144 -40 161 -51 82 -50 52 -145 -52 -164
-76 -14 -151 27 -163 91 l-6 34 -170 0 -171 0 5 -64 c14 -163 133 -294 313
-341 75 -19 240 -19 323 0 118 28 218 95 268 181 13 23 32 75 40 115 37 175
-32 317 -189 394 -40 19 -132 51 -205 71 -153 42 -196 66 -200 110 -5 47 35
78 102 78 65 1 106 -24 120 -73 l9 -31 165 0 165 0 -6 59 c-14 158 -122 277
-288 316 -79 18 -244 18 -321 -1z"/>
<path d="M2450 1713 c0 -5 103 -271 229 -593 l230 -585 158 -3 158 -2 62 162
c92 242 361 947 378 991 l15 37 -191 -2 -191 -3 -114 -354 c-62 -195 -115
-356 -117 -357 -2 -2 -56 158 -121 356 l-117 360 -190 0 c-104 0 -189 -3 -189
-7z"/>
<path d="M3790 1125 l0 -595 170 0 170 0 0 595 0 595 -170 0 -170 0 0 -595z"/>
<path d="M5690 1125 l0 -595 385 0 385 0 0 150 0 150 -215 0 -215 0 0 445 0
445 -170 0 -170 0 0 -595z"/>
<path d="M6897 1603 c-25 -65 -126 -323 -225 -573 -99 -251 -182 -466 -186
-478 l-7 -22 180 0 c107 0 181 4 181 9 0 6 14 48 31 95 l31 86 209 0 c125 0
209 -4 209 -9 0 -6 14 -48 31 -95 l31 -86 183 0 183 0 -237 592 -237 593 -165
3 -166 2 -46 -117z m277 -451 c32 -90 56 -165 53 -168 -2 -3 -58 -3 -124 -2
l-120 3 61 172 c33 95 63 169 67 165 3 -4 32 -80 63 -170z"/>
<path d="M572 1108 c-47 -290 -53 -341 -42 -367 38 -93 322 -313 540 -419 130
-64 196 -68 307 -22 210 87 451 240 583 369 79 78 81 84 53 241 -13 74 -29
165 -35 203 -6 37 -14 67 -18 67 -4 0 -150 -86 -325 -191 -175 -104 -330 -196
-344 -204 -25 -12 -36 -7 -246 122 -362 222 -447 273 -455 273 -3 0 -12 -33
-18 -72z"/>
</g>
</svg>
